<svg xmlns="http://www.w3.org/2000/svg" viewBox="0 0 166 23.2">
  <style>.t{fill:#fff}</style>
  <path class="t" d="M105.4 7.9v3.5h2c1.2 0 1.9-.7 1.9-1.7s-.7-1.7-1.9-1.7l-2-.1zm-2.5-2h4.6c2.5 0 4.2 1.5 4.2 3.7 0 1.4-.8 2.6-2 3.2l2.2 4.3h-2.7l-1.9-3.8h-2.1v3.8h-2.4l.1-11.2zm15.7 6.1c-.2-1-.9-1.6-1.9-1.6-1 0-1.7.6-1.9 1.6h3.8zm-6.2 1c0-2.6 1.7-4.2 4.3-4.2 2.6 0 4.2 1.5 4.2 4 0 .2 0 .5-.1.8h-6.1v.1c0 1.2.8 1.9 2 1.9.9 0 1.6-.4 1.8-1.2h2.3c-.3 1.6-1.7 2.9-3.9 2.9-2.8-.1-4.5-1.7-4.5-4.3zm15.2-4.1h2.3v8.3h-2l-.2-1c-.5.6-1.3 1.1-2.5 1.1-1.7 0-3.3-.9-3.3-3.8V8.9h2.3v4.3c0 1.5.5 2.2 1.6 2.2s1.8-.8 1.8-2.3V8.9zm3.6-2.3h2.3v2.3h1.9v1.9h-1.9v3.6c0 .6.2.8.8.8h1.2v1.9h-1.9c-1.6 0-2.4-.8-2.4-2.4V6.6zm10.9 5.4c-.2-1-.9-1.6-1.9-1.6s-1.7.6-1.9 1.6h3.8zm-6.2 1c0-2.6 1.7-4.2 4.3-4.2 2.6 0 4.2 1.5 4.2 4 0 .2 0 .5-.1.8h-6.1v.1c0 1.2.8 1.9 2 1.9.9 0 1.6-.4 1.8-1.2h2.3c-.3 1.6-1.7 2.9-3.9 2.9-2.8-.1-4.5-1.7-4.5-4.3zm14.7-4.1V11h-.9c-1.4 0-1.9.9-1.9 2.2v4.1h-2.3V8.9h2.1l.2 1.2c.5-.7 1.1-1.2 2.4-1.2h.4zm2.5 5.5c.1.7.7 1.2 1.8 1.2 1 0 1.5-.3 1.5-.9 0-.7-.6-.7-1.9-.9-2-.2-3.5-.7-3.5-2.4s1.5-2.7 3.6-2.7c2.2 0 3.8 1 3.9 2.7h-2.2c-.1-.7-.7-1.1-1.6-1.1s-1.5.3-1.5.9c0 .6.7.7 1.9.8 1.9.2 3.5.6 3.5 2.5 0 1.6-1.6 2.7-3.8 2.7s-3.9-1.1-4-2.8h2.3z"/>
  <path class="t" d="M28.3 5.9h9V8H34v9.1h-2.4V8h-3.3V5.9zm17.9 6.7v4.6h-2.3v-4.4c0-1.4-.6-2.1-1.7-2.1s-1.9.8-1.9 2.3v4.2H38V5.9h2.3v4c.5-.6 1.3-1.1 2.5-1.1 1.9 0 3.4 1 3.4 3.8zm7.4.4c0-1.4-.8-2.4-2.1-2.4s-2.1 1-2.1 2.4.8 2.4 2.1 2.4 2.1-1 2.1-2.4zm-6.5 0c0-2.5 1.7-4.2 4.4-4.2s4.4 1.7 4.4 4.2-1.7 4.2-4.4 4.2-4.4-1.6-4.4-4.2zm22.9-.6v4.7h-2.3v-4.6c0-1.2-.5-1.9-1.4-1.9-1 0-1.7.7-1.7 2v4.5h-2.3v-4.6c0-1.2-.5-1.9-1.5-1.9s-1.6.8-1.6 2v4.5h-2.3V8.9h2l.2 1c.5-.6 1.2-1.1 2.5-1.1 1 0 2 .4 2.5 1.4.6-.9 1.6-1.4 2.8-1.4 1.8 0 3.1.9 3.1 3.6zm3.1 2c.1.7.7 1.2 1.8 1.2 1 0 1.5-.3 1.5-.9 0-.7-.6-.7-1.9-.9-2-.2-3.5-.7-3.5-2.4s1.4-2.7 3.6-2.7 3.8 1 3.9 2.7h-2.2c-.1-.7-.7-1.1-1.6-1.1-.9 0-1.5.3-1.5.9 0 .6.7.7 1.9.8 1.9.2 3.5.6 3.5 2.5 0 1.6-1.6 2.7-3.8 2.7s-3.9-1.1-4-2.8h2.3zM85.8 13c0-1.4-.8-2.4-2.1-2.4s-2.1 1-2.1 2.4.8 2.4 2.1 2.4 2.1-1 2.1-2.4zm-6.5 0c0-2.5 1.7-4.2 4.4-4.2s4.4 1.7 4.4 4.2-1.7 4.2-4.4 4.2-4.4-1.6-4.4-4.2zm18-.4v4.6H95v-4.4c0-1.4-.5-2.1-1.7-2.1s-1.9.8-1.9 2.3v4.2h-2.3V8.9h2l.2 1c.5-.6 1.3-1.1 2.6-1.1 1.8 0 3.4.9 3.4 3.8z"/>
  <path class="t" d="M19.8 3.4c.3.3.4.7.4 1.1 0 .4-.2.8-.4 1.1-.6.6-1.6.6-2.2 0-.3-.3-.4-.7-.4-1.1 0-.4.2-.8.4-1.1.3-.3.7-.4 1.1-.4.4-.1.8.1 1.1.4zM3.3 19.8c-.6-.6-.6-1.6 0-2.2.3-.3.7-.4 1.1-.4.4 0 .8.2 1.1.4.6.6.6 1.6 0 2.2-.3.3-.7.4-1.1.4-.4.1-.8-.1-1.1-.4zM14.9 3.5c-.3-.1-.6-.4-.7-.7-.1-.3-.1-.7 0-1 .1-.3.4-.6.7-.7.2-.1.3-.1.5-.1s.3 0 .5.1c.7.3 1 1.1.7 1.7-.2.6-1 1-1.7.7zM7.7 19.6c.2 0 .3 0 .5.1.7.3 1 1.1.7 1.7-.1.3-.4.6-.7.7-.3.1-.7.1-1 0-.7-.3-1-1.1-.7-1.7.1-.3.4-.6.7-.7.1-.1.3-.1.5-.1zm5-18.1c0 .6-.5 1.1-1.1 1.1h-.1c-.6 0-1.1-.5-1.1-1.1S10.9.4 11.5.4s1.2.5 1.2 1.1z"/>
  <circle class="t" cx="11.6" cy="21.7" r="1.1"/>
  <path class="t" d="M8.1 3.1c-.2.1-.5.1-.7 0-.3-.1-.5-.2-.6-.5-.2-.5 0-1 .5-1.2.1 0 .2-.1.4-.1.4 0 .7.2.9.6.1.2.1.5 0 .7-.1.3-.3.4-.5.5zm7 17c.1 0 .2-.1.4-.1.1 0 .2 0 .4.1s.4.3.5.5c.1.2.1.5 0 .7-.1.2-.3.4-.5.5-.2.1-.5.1-.7 0-.2-.1-.4-.3-.5-.5-.1-.2-.1-.5 0-.7-.1-.3.1-.4.4-.5zM5 3.9c.2.3.2.8 0 1.1-.3.3-.8.3-1.1 0-.3-.3-.3-.8 0-1.1.1-.1.3-.2.5-.2s.4.1.6.2zm13.2 14.3c.1-.1.3-.2.5-.2s.4.1.5.2c.1.1.2.3.2.5s-.1.4-.2.5c-.3.3-.8.3-1.1 0-.1-.1-.2-.3-.2-.5s.1-.3.3-.5zM1.9 8.6c-.5-.2-.8-.8-.6-1.2.1-.2.3-.4.5-.5.1 0 .2-.1.4-.1.1 0 .2 0 .4.1.5.1.7.7.5 1.2-.1.2-.3.4-.5.5-.2.1-.5.1-.7 0zm19.4 6c.2.1.4.3.5.5.1.2.1.5 0 .7-.2.5-.8.7-1.2.5-.2-.1-.4-.3-.5-.5-.1-.2-.1-.5 0-.7.2-.4.5-.6.9-.6 0 0 .2 0 .3.1z"/>
  <circle class="t" cx="1.5" cy="11.6" r="1.1"/>
  <circle class="t" cx="21.7" cy="11.6" r="1.1"/>
  <path class="t" d="M1 16c-.3-.7 0-1.5.7-1.7.3-.1.7-.1 1 0 .3.1.6.4.7.7.1.3.1.7 0 1-.1.3-.4.6-.7.7-.3.1-.7.1-1 0-.3-.1-.6-.4-.7-.7zm18.7-7.8c-.1-.3-.1-.7 0-1 .1-.3.4-.6.7-.7.2-.1.3-.1.5-.1.5 0 1 .3 1.2.8.3.7 0 1.5-.7 1.7-.3.1-.7.1-1 0-.3-.1-.6-.3-.7-.7zm-4.9 6.7c-.4.4-.4 1 0 1.4.4.4 1 .4 1.4 0 .2-.2.3-.4.3-.7 0-.3-.1-.5-.3-.7-.2-.2-.5-.3-.7-.3-.2 0-.5.1-.7.3zm0-.1zm0 0zm0 0c-.4.4-.4 1.1 0 1.5.4.4 1.1.4 1.5 0 .2-.2.3-.5.3-.8 0-.3-.1-.6-.3-.8-.2-.2-.5-.3-.8-.3s-.5.2-.7.4zm-8.9-3.9c-.5-.1-.7-.6-.6-1 .1-.2.2-.4.4-.5.1-.1.3-.1.4-.1h.2c.2.1.4.2.5.4.2.2.2.4.1.7-.1.4-.6.7-1 .5zm10.9 3c-.2-.1-.4-.2-.5-.4-.1-.2-.1-.4-.1-.6.1-.2.2-.4.4-.5.1-.1.3-.1.4-.1h.2c.5.1.7.6.6 1-.1.2-.2.4-.4.5-.2.1-.4.1-.6.1zm-11.3-.7c-.1-.3.1-.7.4-.8.4-.1.7.1.8.5 0 .2 0 .4-.1.5-.1.2-.2.3-.4.3s-.4 0-.5-.1c-.1 0-.2-.2-.2-.4zm11.2-2.5c-.2-.1-.3-.2-.3-.4-.1-.4.1-.7.5-.8.4-.1.7.1.8.5.1.4-.1.7-.5.8-.2 0-.4 0-.5-.1zm-8.8 5.2c-.2.2-.5.2-.7 0-.2-.2-.2-.5 0-.7.2-.2.5-.2.7 0 .1.1.1.2.1.4.1.1 0 .2-.1.3zm8-8.7c.1.1.1.2.1.4s0 .3-.1.4c-.2.2-.5.2-.7 0-.1-.1-.2-.3-.2-.4s.1-.3.1-.4c.1-.1.2-.1.4-.1s.3 0 .4.1zm-5.2 9.5c.1.2.1.3.1.5s-.2.3-.3.4-.3.1-.5.1c-.4-.1-.6-.5-.5-.8 0-.2.2-.3.3-.4.2-.1.3-.1.5-.1s.3.2.4.3zm1.7-10.2c-.1-.2-.1-.3-.1-.5s.2-.3.3-.4c.1-.1.2-.1.3-.1h.2c.2 0 .3.2.4.3.1.2.1.3.1.5-.1.4-.5.6-.8.5-.1 0-.3-.2-.4-.3zm1.1 9.8c.2.1.3.3.4.5.1.5-.1.9-.6 1-.2.1-.4 0-.6-.1-.2-.1-.3-.3-.4-.5-.1-.2 0-.4.1-.6.1-.2.3-.3.5-.4h.2c.1 0 .2 0 .4.1zM10.3 7c-.4.1-.9-.1-1-.6-.1-.5.1-.9.6-1h.2c.4 0 .7.2.8.6.1.4-.1.8-.6 1z"/>
  <circle class="t" cx="7.6" cy="7.6" r="1.1"/>
</svg>
