<svg xmlns="http://www.w3.org/2000/svg" viewBox="117 125 230 230">
  <defs>
    <style>.cls-1{fill:#005da2;}</style>
  </defs>
  <path class="cls-1" d="M316.4486,149.9442c2.9261,2.9263,4.5483,6.838,4.5483,10.9771s-1.6071,8.0507-4.5483,10.9769c-6.0495,6.0493-15.9044,6.0493-21.9539,0-2.9261-2.9261-4.5483-6.8227-4.5483-10.9769s1.6071-8.0507,4.5483-10.9771c3.0324-3.0322,7.0046-4.5483,10.9771-4.5483s7.9598,1.5161,10.9768,4.5483Z"/>
  <path class="cls-1" d="M148.52,318.0097c-6.0495-6.0495-6.0495-15.9044,0-21.9537,2.9261-2.9263,6.8227-4.5485,10.9768-4.5485s8.0507,1.6071,10.9769,4.5485c6.0493,6.0493,6.0493,15.9042,0,21.9537-2.9414,2.9412-6.8378,4.5483-10.9769,4.5483s-8.0507-1.6071-10.9768-4.5483Z"/>
  <path class="cls-1" d="M266.8549,151.1569l-.1061-.0455c-3.3054-1.3949-5.8826-3.9875-7.2472-7.3078-1.3949-3.3506-1.3949-7.0349,0-10.4008,1.3947-3.3507,4.0026-5.9585,7.3533-7.3533,1.683-.6974,3.4416-1.0461,5.2003-1.0461s3.5326.3487,5.2005,1.0461c6.9287,2.8655,10.2188,10.8253,7.3533,17.7541-2.8655,6.9287-10.8253,10.2188-17.754,7.3533Z"/>
  <path class="cls-1" d="M192.9731,315.7964c1.7586,0,3.5173.3486,5.1852,1.031,6.9287,2.8655,10.2188,10.8253,7.3533,17.754-1.3949,3.35-4.0026,5.9745-7.3533,7.3524-3.3506,1.3954-7.035,1.3954-10.4008,0-6.9287-2.8651-10.2188-10.8244-7.3533-17.7532,1.3947-3.3506,4.0026-5.9736,7.3533-7.3533,1.683-.6975,3.4416-1.0463,5.2003-1.0463l.0153.0153Z"/>
  <path class="cls-1" d="M244.1281,130.7509c0,6.2465-4.9426,11.3559-11.1133,11.6439h-.5308c-6.4283,0-11.6439-5.2306-11.6439-11.6439s5.2307-11.644,11.6439-11.644,11.6441,5.2458,11.6441,11.6591v-.0152Z"/>
  <path class="cls-1" d="M220.8245,337.249c0-6.4279,5.2307-11.6435,11.6441-11.6435s11.6439,5.2307,11.6439,11.6435-5.2307,11.6441-11.6439,11.6441-11.6441-5.2294-11.6441-11.6441Z"/>
  <path class="cls-1" d="M196.7178,147.5804c-2.3955.9855-5.0185.9855-7.4292,0-2.4106-1.0006-4.2756-2.8655-5.2611-5.2611-2.0467-4.9578.3034-10.6433,5.2611-12.6901,1.213-.5003,2.4561-.7429,3.6995-.7429,3.8207,0,7.4292,2.2742,8.9907,6.0039.9855,2.4107.9855,5.0487,0,7.4291-.9855,2.4106-2.8504,4.2756-5.2611,5.2611Z"/>
  <path class="cls-1" d="M268.2343,320.4208c1.213-.5002,2.4714-.758,3.7299-.758s2.5167.2579,3.7146.743c2.4106,1.0006,4.2754,2.8655,5.2609,5.2611.9855,2.4106.9855,5.0487,0,7.4291-.9855,2.4106-2.8502,4.2756-5.2609,5.2619-2.4108.9842-5.0336.9842-7.4445,0-2.4106-.9864-4.2753-2.8513-5.2608-5.2619-.9855-2.4108-.9855-5.0336,0-7.4291.9855-2.3955,2.8502-4.2605,5.2608-5.246Z"/>
  <path class="cls-1" d="M164.9696,155.5403c2.9867,2.9867,3.0322,7.7929.1516,10.8404l-.1669.1667c-3.0322,3.0324-7.9748,3.0324-11.0073,0-3.0322-3.0322-3.0322-7.9748,0-11.007,1.5163-1.5163,3.5024-2.2744,5.5036-2.2744s3.9875.758,5.5036,2.2744h.0153Z"/>
  <path class="cls-1" d="M299.9066,301.4995c1.501-1.5161,3.5022-2.2741,5.4883-2.2741s3.9875.758,5.5036,2.2741c1.4706,1.4555,2.2742,3.4112,2.2742,5.4883s-.8035,4.033-2.2742,5.5036c-3.0322,3.0475-7.9597,3.0324-11.0072,0-1.4706-1.4706-2.2742-3.4416-2.2742-5.5036s.8035-4.0177,2.2742-5.4883h.0153Z"/>
  <path class="cls-1" d="M133.3878,203.4504c-4.9578-2.0469-7.3078-7.7476-5.261-12.6902.9855-2.4106,2.8503-4.2753,5.261-5.2609,1.2129-.4853,2.4713-.743,3.7297-.743s2.5169.2426,3.7146.743c4.9577,2.0467,7.3078,7.7474,5.2611,12.69-.9855,2.4106-2.8505,4.2756-5.2611,5.2611-2.4107.9855-5.0488.9855-7.4291,0h-.0152Z"/>
  <path class="cls-1" d="M331.6087,264.5803c2.4106.9855,4.2756,2.8502,5.2615,5.2609.9842,2.4108.9842,5.0336,0,7.4291-2.0474,4.9426-7.7327,7.3078-12.6907,5.246-2.4106-.9855-4.2754-2.8504-5.2609-5.2611-.9855-2.4106-.9855-5.0336,0-7.4291,1.5463-3.7297,5.1699-5.9887,8.9907-5.9887,1.2281,0,2.4863.2426,3.6993.743Z"/>
  <path class="cls-1" d="M117.5902,234.0604c0-6.4285,5.2307-11.6441,11.644-11.6441s11.644,5.2309,11.644,11.6441-5.2307,11.6439-11.644,11.6439-11.644-5.2307-11.644-11.6439Z"/>
  <path class="cls-1" d="M324.0895,234.0604c0-6.4285,5.2307-11.6441,11.6439-11.6441s11.6437,5.2309,11.6437,11.6441-5.2294,11.6439-11.6437,11.6439-11.6439-5.2307-11.6439-11.6439Z"/>
  <path class="cls-1" d="M124.4889,278.7114c-2.8655-6.9287.4245-14.8734,7.3533-17.754,3.3507-1.3947,7.0349-1.3947,10.4008,0,3.3506,1.3949,5.9583,4.0026,7.3533,7.3533,1.3947,3.3509,1.3947,7.035,0,10.4008-1.3949,3.3509-4.0026,5.9585-7.3533,7.3535-3.3507,1.3947-7.035,1.3947-10.4008,0-3.3507-1.3949-5.9584-4.0026-7.3533-7.3535Z"/>
  <path class="cls-1" d="M315.2645,199.6747c-1.3796-3.3506-1.3796-7.0348,0-10.3857,1.3949-3.3506,4.0026-5.9583,7.3533-7.3533,1.683-.7126,3.4418-1.0461,5.1701-1.0461,5.337,0,10.4012,3.1536,12.5686,8.3843,2.8651,6.9287-.4243,14.8734-7.353,17.754-3.3507,1.3949-7.0348,1.3949-10.4008,0-3.3507-1.3947-5.9583-4.0026-7.3533-7.3533h.0151Z"/>
  <path class="cls-1" d="M265.5204,267.0377c-4.2605,4.2452-4.2605,11.1739,0,15.4191,4.2603,4.2605,11.1739,4.2605,15.4344,0,2.062-2.0618,3.1991-4.7909,3.1991-7.7019s-1.1371-5.6552-3.1991-7.7021c-2.1226-2.1226-4.9125-3.1838-7.7021-3.1838s-5.5793,1.0763-7.7019,3.1838l-.0304-.0151Z"/>
  <path class="cls-1" d="M174.5365,227.4055c-4.6091-1.2281-7.3382-5.9736-6.1101-10.5827.6065-2.2287,2.0316-4.0936,4.033-5.2458,1.319-.7734,2.805-1.1675,4.2907-1.1675.743,0,1.501.091,2.244.288,2.2287.6065,4.0936,2.0316,5.2458,4.033,1.1524,2.0012,1.4555,4.3361.8641,6.5648-1.2281,4.6091-5.9734,7.3533-10.5825,6.1101h.0151Z"/>
  <path class="cls-1" d="M285.9278,257.2585c-2.2289-.6065-4.0936-2.0318-5.246-4.033-1.1522-2.0014-1.4555-4.3362-.8641-6.5648.6065-2.2289,2.0316-4.0936,4.033-5.246,1.3341-.7731,2.82-1.1675,4.3057-1.1675.6216,0,1.2434.0608,1.8496.1971l.4094.1063c4.6091,1.2281,7.3382,5.9887,6.1101,10.5825-.6065,2.2289-2.0316,4.0936-4.033,5.246-2.0012,1.1522-4.3361,1.4706-6.5648.8641v.0153Z"/>
  <path class="cls-1" d="M170.1091,250.7066c-.9551-3.563,1.0461-7.2168,4.5028-8.3692l.3943-.1061c3.6842-1.0006,7.4897,1.213,8.4752,4.8971.4851,1.7891.2426,3.654-.6975,5.2611-.9249,1.5918-2.4259,2.7442-4.1997,3.2293-1.7891.4853-3.6387.2426-5.2611-.6975-1.592-.9247-2.7442-2.4257-3.2295-4.1997l.0153-.0151Z"/>
  <path class="cls-1" d="M284.6848,225.1147l-.3031-.182c-1.4404-.94-2.4714-2.35-2.911-4.0177-.9855-3.6995,1.1979-7.4897,4.8971-8.4905,3.6691-.9855,7.4897,1.213,8.4753,4.8971.9855,3.6844-1.1977,7.4897-4.8972,8.4752-1.7891.4853-3.6387.2275-5.2611-.6975v.0153Z"/>
  <path class="cls-1" d="M195.5659,278.15l-.1973.197c-2.0316,2.0318-5.3368,2.0318-7.3683,0-2.0316-2.0316-2.0316-5.3217,0-7.3533,2.0316-2.0316,5.3367-2.0316,7.3683,0,.9855.9855,1.5314,2.2895,1.5314,3.6842,0,1.3039-.47,2.5169-1.3341,3.472Z"/>
  <path class="cls-1" d="M276.8922,189.5329c.9855.9855,1.5314,2.2895,1.5314,3.6844s-.5459,2.6987-1.5314,3.6842c-2.0316,2.0316-5.3368,2.0316-7.3684,0-.9855-1.0006-1.5314-2.2895-1.5314-3.6842s.5459-2.6989,1.5314-3.6844c1.0006-.9855,2.2895-1.5312,3.6842-1.5312s2.6989.5306,3.6842,1.5161v.0151Z"/>
  <path class="cls-1" d="M223.5383,286.2169c.9247,1.5918,1.1673,3.4718.6975,5.2608-.4853,1.7891-1.6224,3.275-3.2295,4.1997-1.6071.9249-3.472,1.1675-5.2611.6975-3.6842-.9855-5.8827-4.7908-4.8971-8.4752.4851-1.7891,1.6224-3.2747,3.2295-4.1997,1.592-.9249,3.4567-1.1675,5.2611-.6975,1.789.4853,3.2747,1.6224,4.1997,3.2295v-.0151Z"/>
  <path class="cls-1" d="M241.368,181.8147c-.9249-1.5918-1.1675-3.4718-.6975-5.2609.4853-1.789,1.6224-3.275,3.2295-4.1999,1.0612-.6063,2.244-.9247,3.4416-.9247.6065,0,1.1977.0757,1.8041.2275,1.7891.4851,3.275,1.6222,4.1997,3.2293.9249,1.592,1.1675,3.472.6975,5.2611-.9855,3.6842-4.7909,5.8826-8.4752,4.8971-1.7891-.4851-3.2748-1.6224-4.1997-3.2295Z"/>
  <path class="cls-1" d="M251.7692,282.228l.3637.2124c1.8044,1.1673,3.093,2.9412,3.654,5.0183,1.2281,4.6091-1.501,9.3547-6.1101,10.5827-2.244.6065-4.5636.288-6.5648-.8641-2.0014-1.1524-3.4265-3.0171-4.033-5.246-.6065-2.2287-.288-4.5636.8641-6.5648,1.1524-2.0014,3.0173-3.4265,5.246-4.033.758-.1971,1.5161-.288,2.2591-.288,1.501,0,2.9716.3941,4.3058,1.1675l.0153.0151Z"/>
  <path class="cls-1" d="M219.7935,186.6816c-4.5938,1.2281-9.3394-1.5161-10.5827-6.1101-1.2281-4.6091,1.501-9.3547,6.1101-10.5827.743-.1971,1.4859-.288,2.2287-.288,3.8209,0,7.3231,2.5471,8.3541,6.3982,1.2281,4.6091-1.501,9.3547-6.1101,10.5827Z"/>
  <path class="cls-1" d="M191.7146,204.0415c6.0121,0,10.8861-4.8737,10.8861-10.8859s-4.874-10.8859-10.8861-10.8859-10.8859,4.8737-10.8859,10.8859,4.8737,10.8859,10.8859,10.8859Z"/>
</svg>
