<?xml version="1.0" encoding="UTF-8"?>
<svg id="Layer_1" data-name="Layer 1" xmlns="http://www.w3.org/2000/svg" viewBox="0 0 1926 468">
  <defs>
    <style>
      .cls-1 {
        fill: #d64000;
      }

      .cls-2 {
        fill: #212223;
      }
    </style>
  </defs>
  <path class="cls-2" d="M1165.2595,175.2507h47.3945c25.6089,0,42.7403,14.934,42.7403,38.2522,0,14.7824-7.8232,26.5932-19.9529,32.3394l22.9406,44.3321h-27.61l-19.6337-38.586h-20.9524v38.586h-24.9571v-114.9237h.0306ZM1190.2165,195.764v35.2959h20.4669c11.8103,0,19.2859-6.8983,19.2859-17.5721s-7.4755-17.7389-19.2859-17.7389h-20.4669v.0151Z"/>
  <path class="cls-2" d="M1261.9447,248.13c0-26.2748,17.4509-43.3315,43.893-43.3315s42.9065,15.7528,43.2391,40.5419c0,2.4712-.1663,5.2458-.6671,7.8839h-62.0394v1.1371c.4987,11.9777,8.3088,19.2095,20.1191,19.2095,9.4899,0,16.1322-4.1087,18.1333-11.9775h23.1198c-2.6682,16.4197-17.4509,29.5495-40.2536,29.5495-28.4433,0-45.5595-16.905-45.5595-43.0129h.0152ZM1325.4713,238.1083c-1.6688-10.3402-8.8249-16.0864-19.4674-16.0864s-17.8008,6.0797-19.1197,16.0864h38.5871Z"/>
  <path class="cls-2" d="M1416.8506,205.7997h23.4545v84.3887h-20.7862l-2.1544-10.1886c-5.4874,6.565-12.963,11.1588-25.121,11.1588-17.6194,0-33.9329-8.7027-33.9329-38.5857v-46.7883h23.4545v43.6648c0,15.1009,5.004,22.4996,16.6329,22.4996s18.4526-8.3689,18.4526-23.9702v-42.1942h-.0154l.0154.0151Z"/>
  <path class="cls-2" d="M1454.1757,182.2096h23.4545v23.6367h19.4674v19.5431h-19.4674v36.9485c0,5.9131,2.3358,8.3692,8.3088,8.3692h12.1297v19.528h-19.4674c-16.2983,0-24.4408-8.0356-24.4408-24.122v-83.8881l.0152-.0153Z"/>
  <path class="cls-2" d="M1501.9508,248.13c0-26.2748,17.4509-43.3315,43.9084-43.3315s42.9065,15.7528,43.2389,40.5419c0,2.4712-.1815,5.2458-.6671,7.8839h-62.0393v1.1371c.4855,11.9777,8.3087,19.2095,20.1191,19.2095,9.4898,0,16.132-4.1087,18.1487-11.9775h23.1045c-2.6682,16.4197-17.4509,29.5495-40.2383,29.5495-28.4433,0-45.5749-16.905-45.5749-43.0129ZM1565.4927,238.1083c-1.6688-10.3402-8.825-16.0864-19.4674-16.0864s-17.7986,6.0797-19.1175,16.0864h38.5849Z"/>
  <path class="cls-2" d="M1651.5792,205.7846v21.029h-9.3104c-13.9778,0-19.2837,9.1878-19.2837,21.9992v41.3756h-23.4545v-84.3887h21.2849l2.1696,12.6296c4.6541-7.5505,11.2942-12.6296,24.607-12.6296h3.9871v-.0151Z"/>
  <path class="cls-2" d="M1677.6102,262.1093c.8354,7.3834,7.3093,12.4779,18.8004,12.4779,9.8091,0,15.7996-3.1234,15.7996-9.0211,0-6.8984-5.8068-7.3837-19.6205-9.1878-19.9661-2.3045-35.4311-6.7317-35.4311-24.1218s14.811-27.7456,36.7498-27.5787c22.9406,0,38.7533,10.0217,39.9213,27.2452h-22.455c-.6517-6.7317-7.1561-10.8406-16.6307-10.8406s-15.1326,3.2901-15.1326,8.7027c0,6.4132,7.3246,7.0652,19.6359,8.5358,19.6336,1.971,35.9318,6.4135,35.9318,25.4561,0,16.7383-15.9658,27.4118-38.9195,27.4118s-39.9058-11.0072-40.9206-29.0493h22.2864-.0152v-.0302Z"/>
  <path class="cls-2" d="M403.1263,175.2041h92.3023v21.1655h-33.7645v93.7432h-24.9571v-93.7432h-33.5961v-21.1655h.0153Z"/>
  <path class="cls-2" d="M585.9878,243.3396v46.7882h-23.4545v-44.8019c0-13.7971-5.6558-21.5141-17.3-21.5141s-19.1175,8.5358-19.1175,22.9847v43.3313h-23.4567v-114.9237h23.4567v40.8905c5.4874-6.565,13.1445-11.3257,25.2742-11.3257,18.9665,0,34.5825,10.0217,34.5825,38.586h.0153v-.0153Z"/>
  <path class="cls-2" d="M594.9177,247.9334c0-25.9412,17.7986-43.1798,45.0762-43.1798s45.074,17.2232,45.074,43.1798-17.7986,43.1797-45.074,43.1797-45.0762-17.2234-45.0762-43.1797ZM661.2635,247.9334c0-14.2822-8.1404-24.2887-21.3002-24.2887s-21.1208,10.0217-21.1208,24.2887,7.9895,24.2887,21.1208,24.2887,21.3002-10.0217,21.3002-24.2887Z"/>
  <path class="cls-2" d="M829.373,241.6868v48.4408h-23.4545v-47.1065c0-12.6296-4.6542-19.2095-14.798-19.2095s-16.9653,7.3834-16.9653,20.1951v46.1361h-23.4545v-47.1065c0-12.6294-4.6541-19.2095-14.9795-19.2095s-16.7991,7.7172-16.7991,20.3466v45.9694h-23.4545v-84.3885h20.469l2.1521,10.5068c5.155-6.5648,12.6459-11.3255,25.1232-11.4924,10.4915-.1667,20.3007,3.6085,25.6066,14.2822,5.9883-9.0211,15.9658-14.2822,28.9441-14.2822,17.6171,0,31.5949,9.8549,31.5949,36.9485l.0154-.0304Z"/>
  <path class="cls-2" d="M860.5764,262.0791c.8332,7.3837,7.3224,12.4779,18.8003,12.4779,9.8092,0,15.7975-3.1232,15.7975-9.0211,0-6.8983-5.8068-7.3834-19.6337-9.1878-19.9529-2.3045-35.4179-6.7317-35.4179-24.1218s14.798-27.7454,36.7674-27.5787c22.9383,0,38.7533,10.0217,39.919,27.2452h-22.4528c-.6671-6.7317-7.1562-10.8404-16.6329-10.8404s-15.1457,3.2901-15.1457,8.7025c0,6.4135,7.3225,7.0654,19.6337,8.536,19.6336,1.9557,35.9319,6.4132,35.9319,25.4559,0,16.7383-15.9636,27.4121-38.9195,27.4121s-39.919-11.0072-40.9054-29.0646h22.2887-.0153l-.0153-.0151Z"/>
  <path class="cls-2" d="M923.9498,247.9334c0-25.9412,17.8008-43.1798,45.0762-43.1798s45.074,17.2232,45.074,43.1798-17.7986,43.1797-45.074,43.1797-45.0762-17.2234-45.0762-43.1797ZM990.2978,247.9334c0-14.2822-8.1426-24.2887-21.3024-24.2887s-21.1187,10.0217-21.1187,24.2887,7.9895,24.2887,21.1187,24.2887,21.3024-10.0217,21.3024-24.2887Z"/>
  <path class="cls-2" d="M1107.7977,243.3243v46.7883h-23.4545v-44.4837c0-14.2822-5.4874-21.8325-17.2978-21.8325s-19.1197,8.5358-19.1197,23.1516v43.1797h-23.4545v-84.3885h20.4669l2.1543,10.5068c5.4874-6.565,13.3107-11.4924,26.4421-11.4924,18.4504,0,34.2631,9.6729,34.2631,38.5857v-.0151Z"/>
  <path class="cls-1" d="M316.4486,149.9442c2.9261,2.9263,4.5483,6.838,4.5483,10.9771s-1.6071,8.0507-4.5483,10.9769c-6.0495,6.0493-15.9044,6.0493-21.9539,0-2.9261-2.9261-4.5483-6.8227-4.5483-10.9769s1.6071-8.0507,4.5483-10.9771c3.0324-3.0322,7.0046-4.5483,10.9771-4.5483s7.9598,1.5161,10.9768,4.5483Z"/>
  <path class="cls-1" d="M148.52,318.0097c-6.0495-6.0495-6.0495-15.9044,0-21.9537,2.9261-2.9263,6.8227-4.5485,10.9768-4.5485s8.0507,1.6071,10.9769,4.5485c6.0493,6.0493,6.0493,15.9042,0,21.9537-2.9414,2.9412-6.8378,4.5483-10.9769,4.5483s-8.0507-1.6071-10.9768-4.5483Z"/>
  <path class="cls-1" d="M266.8549,151.1569l-.1061-.0455c-3.3054-1.3949-5.8826-3.9875-7.2472-7.3078-1.3949-3.3506-1.3949-7.0349,0-10.4008,1.3947-3.3507,4.0026-5.9585,7.3533-7.3533,1.683-.6974,3.4416-1.0461,5.2003-1.0461s3.5326.3487,5.2005,1.0461c6.9287,2.8655,10.2188,10.8253,7.3533,17.7541-2.8655,6.9287-10.8253,10.2188-17.754,7.3533Z"/>
  <path class="cls-1" d="M192.9731,315.7964c1.7586,0,3.5173.3486,5.1852,1.031,6.9287,2.8655,10.2188,10.8253,7.3533,17.754-1.3949,3.35-4.0026,5.9745-7.3533,7.3524-3.3506,1.3954-7.035,1.3954-10.4008,0-6.9287-2.8651-10.2188-10.8244-7.3533-17.7532,1.3947-3.3506,4.0026-5.9736,7.3533-7.3533,1.683-.6975,3.4416-1.0463,5.2003-1.0463l.0153.0153Z"/>
  <path class="cls-1" d="M244.1281,130.7509c0,6.2465-4.9426,11.3559-11.1133,11.6439h-.5308c-6.4283,0-11.6439-5.2306-11.6439-11.6439s5.2307-11.644,11.6439-11.644,11.6441,5.2458,11.6441,11.6591v-.0152Z"/>
  <path class="cls-1" d="M220.8245,337.249c0-6.4279,5.2307-11.6435,11.6441-11.6435s11.6439,5.2307,11.6439,11.6435-5.2307,11.6441-11.6439,11.6441-11.6441-5.2294-11.6441-11.6441Z"/>
  <path class="cls-1" d="M196.7178,147.5804c-2.3955.9855-5.0185.9855-7.4292,0-2.4106-1.0006-4.2756-2.8655-5.2611-5.2611-2.0467-4.9578.3034-10.6433,5.2611-12.6901,1.213-.5003,2.4561-.7429,3.6995-.7429,3.8207,0,7.4292,2.2742,8.9907,6.0039.9855,2.4107.9855,5.0487,0,7.4291-.9855,2.4106-2.8504,4.2756-5.2611,5.2611Z"/>
  <path class="cls-1" d="M268.2343,320.4208c1.213-.5002,2.4714-.758,3.7299-.758s2.5167.2579,3.7146.743c2.4106,1.0006,4.2754,2.8655,5.2609,5.2611.9855,2.4106.9855,5.0487,0,7.4291-.9855,2.4106-2.8502,4.2756-5.2609,5.2619-2.4108.9842-5.0336.9842-7.4445,0-2.4106-.9864-4.2753-2.8513-5.2608-5.2619-.9855-2.4108-.9855-5.0336,0-7.4291.9855-2.3955,2.8502-4.2605,5.2608-5.246Z"/>
  <path class="cls-1" d="M164.9696,155.5403c2.9867,2.9867,3.0322,7.7929.1516,10.8404l-.1669.1667c-3.0322,3.0324-7.9748,3.0324-11.0073,0-3.0322-3.0322-3.0322-7.9748,0-11.007,1.5163-1.5163,3.5024-2.2744,5.5036-2.2744s3.9875.758,5.5036,2.2744h.0153Z"/>
  <path class="cls-1" d="M299.9066,301.4995c1.501-1.5161,3.5022-2.2741,5.4883-2.2741s3.9875.758,5.5036,2.2741c1.4706,1.4555,2.2742,3.4112,2.2742,5.4883s-.8035,4.033-2.2742,5.5036c-3.0322,3.0475-7.9597,3.0324-11.0072,0-1.4706-1.4706-2.2742-3.4416-2.2742-5.5036s.8035-4.0177,2.2742-5.4883h.0153Z"/>
  <path class="cls-1" d="M133.3878,203.4504c-4.9578-2.0469-7.3078-7.7476-5.261-12.6902.9855-2.4106,2.8503-4.2753,5.261-5.2609,1.2129-.4853,2.4713-.743,3.7297-.743s2.5169.2426,3.7146.743c4.9577,2.0467,7.3078,7.7474,5.2611,12.69-.9855,2.4106-2.8505,4.2756-5.2611,5.2611-2.4107.9855-5.0488.9855-7.4291,0h-.0152Z"/>
  <path class="cls-1" d="M331.6087,264.5803c2.4106.9855,4.2756,2.8502,5.2615,5.2609.9842,2.4108.9842,5.0336,0,7.4291-2.0474,4.9426-7.7327,7.3078-12.6907,5.246-2.4106-.9855-4.2754-2.8504-5.2609-5.2611-.9855-2.4106-.9855-5.0336,0-7.4291,1.5463-3.7297,5.1699-5.9887,8.9907-5.9887,1.2281,0,2.4863.2426,3.6993.743Z"/>
  <path class="cls-1" d="M117.5902,234.0604c0-6.4285,5.2307-11.6441,11.644-11.6441s11.644,5.2309,11.644,11.6441-5.2307,11.6439-11.644,11.6439-11.644-5.2307-11.644-11.6439Z"/>
  <path class="cls-1" d="M324.0895,234.0604c0-6.4285,5.2307-11.6441,11.6439-11.6441s11.6437,5.2309,11.6437,11.6441-5.2294,11.6439-11.6437,11.6439-11.6439-5.2307-11.6439-11.6439Z"/>
  <path class="cls-1" d="M124.4889,278.7114c-2.8655-6.9287.4245-14.8734,7.3533-17.754,3.3507-1.3947,7.0349-1.3947,10.4008,0,3.3506,1.3949,5.9583,4.0026,7.3533,7.3533,1.3947,3.3509,1.3947,7.035,0,10.4008-1.3949,3.3509-4.0026,5.9585-7.3533,7.3535-3.3507,1.3947-7.035,1.3947-10.4008,0-3.3507-1.3949-5.9584-4.0026-7.3533-7.3535Z"/>
  <path class="cls-1" d="M315.2645,199.6747c-1.3796-3.3506-1.3796-7.0348,0-10.3857,1.3949-3.3506,4.0026-5.9583,7.3533-7.3533,1.683-.7126,3.4418-1.0461,5.1701-1.0461,5.337,0,10.4012,3.1536,12.5686,8.3843,2.8651,6.9287-.4243,14.8734-7.353,17.754-3.3507,1.3949-7.0348,1.3949-10.4008,0-3.3507-1.3947-5.9583-4.0026-7.3533-7.3533h.0151Z"/>
  <path class="cls-1" d="M265.5204,267.0377c-4.2605,4.2452-4.2605,11.1739,0,15.4191,4.2603,4.2605,11.1739,4.2605,15.4344,0,2.062-2.0618,3.1991-4.7909,3.1991-7.7019s-1.1371-5.6552-3.1991-7.7021c-2.1226-2.1226-4.9125-3.1838-7.7021-3.1838s-5.5793,1.0763-7.7019,3.1838l-.0304-.0151Z"/>
  <path class="cls-1" d="M174.5365,227.4055c-4.6091-1.2281-7.3382-5.9736-6.1101-10.5827.6065-2.2287,2.0316-4.0936,4.033-5.2458,1.319-.7734,2.805-1.1675,4.2907-1.1675.743,0,1.501.091,2.244.288,2.2287.6065,4.0936,2.0316,5.2458,4.033,1.1524,2.0012,1.4555,4.3361.8641,6.5648-1.2281,4.6091-5.9734,7.3533-10.5825,6.1101h.0151Z"/>
  <path class="cls-1" d="M285.9278,257.2585c-2.2289-.6065-4.0936-2.0318-5.246-4.033-1.1522-2.0014-1.4555-4.3362-.8641-6.5648.6065-2.2289,2.0316-4.0936,4.033-5.246,1.3341-.7731,2.82-1.1675,4.3057-1.1675.6216,0,1.2434.0608,1.8496.1971l.4094.1063c4.6091,1.2281,7.3382,5.9887,6.1101,10.5825-.6065,2.2289-2.0316,4.0936-4.033,5.246-2.0012,1.1522-4.3361,1.4706-6.5648.8641v.0153Z"/>
  <path class="cls-1" d="M170.1091,250.7066c-.9551-3.563,1.0461-7.2168,4.5028-8.3692l.3943-.1061c3.6842-1.0006,7.4897,1.213,8.4752,4.8971.4851,1.7891.2426,3.654-.6975,5.2611-.9249,1.5918-2.4259,2.7442-4.1997,3.2293-1.7891.4853-3.6387.2426-5.2611-.6975-1.592-.9247-2.7442-2.4257-3.2295-4.1997l.0153-.0151Z"/>
  <path class="cls-1" d="M284.6848,225.1147l-.3031-.182c-1.4404-.94-2.4714-2.35-2.911-4.0177-.9855-3.6995,1.1979-7.4897,4.8971-8.4905,3.6691-.9855,7.4897,1.213,8.4753,4.8971.9855,3.6844-1.1977,7.4897-4.8972,8.4752-1.7891.4853-3.6387.2275-5.2611-.6975v.0153Z"/>
  <path class="cls-1" d="M195.5659,278.15l-.1973.197c-2.0316,2.0318-5.3368,2.0318-7.3683,0-2.0316-2.0316-2.0316-5.3217,0-7.3533,2.0316-2.0316,5.3367-2.0316,7.3683,0,.9855.9855,1.5314,2.2895,1.5314,3.6842,0,1.3039-.47,2.5169-1.3341,3.472Z"/>
  <path class="cls-1" d="M276.8922,189.5329c.9855.9855,1.5314,2.2895,1.5314,3.6844s-.5459,2.6987-1.5314,3.6842c-2.0316,2.0316-5.3368,2.0316-7.3684,0-.9855-1.0006-1.5314-2.2895-1.5314-3.6842s.5459-2.6989,1.5314-3.6844c1.0006-.9855,2.2895-1.5312,3.6842-1.5312s2.6989.5306,3.6842,1.5161v.0151Z"/>
  <path class="cls-1" d="M223.5383,286.2169c.9247,1.5918,1.1673,3.4718.6975,5.2608-.4853,1.7891-1.6224,3.275-3.2295,4.1997-1.6071.9249-3.472,1.1675-5.2611.6975-3.6842-.9855-5.8827-4.7908-4.8971-8.4752.4851-1.7891,1.6224-3.2747,3.2295-4.1997,1.592-.9249,3.4567-1.1675,5.2611-.6975,1.789.4853,3.2747,1.6224,4.1997,3.2295v-.0151Z"/>
  <path class="cls-1" d="M241.368,181.8147c-.9249-1.5918-1.1675-3.4718-.6975-5.2609.4853-1.789,1.6224-3.275,3.2295-4.1999,1.0612-.6063,2.244-.9247,3.4416-.9247.6065,0,1.1977.0757,1.8041.2275,1.7891.4851,3.275,1.6222,4.1997,3.2293.9249,1.592,1.1675,3.472.6975,5.2611-.9855,3.6842-4.7909,5.8826-8.4752,4.8971-1.7891-.4851-3.2748-1.6224-4.1997-3.2295Z"/>
  <path class="cls-1" d="M251.7692,282.228l.3637.2124c1.8044,1.1673,3.093,2.9412,3.654,5.0183,1.2281,4.6091-1.501,9.3547-6.1101,10.5827-2.244.6065-4.5636.288-6.5648-.8641-2.0014-1.1524-3.4265-3.0171-4.033-5.246-.6065-2.2287-.288-4.5636.8641-6.5648,1.1524-2.0014,3.0173-3.4265,5.246-4.033.758-.1971,1.5161-.288,2.2591-.288,1.501,0,2.9716.3941,4.3058,1.1675l.0153.0151Z"/>
  <path class="cls-1" d="M219.7935,186.6816c-4.5938,1.2281-9.3394-1.5161-10.5827-6.1101-1.2281-4.6091,1.501-9.3547,6.1101-10.5827.743-.1971,1.4859-.288,2.2287-.288,3.8209,0,7.3231,2.5471,8.3541,6.3982,1.2281,4.6091-1.501,9.3547-6.1101,10.5827Z"/>
  <path class="cls-1" d="M191.7146,204.0415c6.0121,0,10.8861-4.8737,10.8861-10.8859s-4.874-10.8859-10.8861-10.8859-10.8859,4.8737-10.8859,10.8859,4.8737,10.8859,10.8859,10.8859Z"/>
</svg>